<?xml version="1.0" encoding="utf-8"?>
<!-- Generator: Adobe Illustrator 18.1.1, SVG Export Plug-In . SVG Version: 6.00 Build 0)  -->
<!DOCTYPE svg PUBLIC "-//W3C//DTD SVG 1.1//EN" "http://www.w3.org/Graphics/SVG/1.1/DTD/svg11.dtd">
<svg version="1.1" id="Layer_1" xmlns="http://www.w3.org/2000/svg" xmlns:xlink="http://www.w3.org/1999/xlink" x="0px" y="0px"
	 viewBox="0 0 907.9 95.2" enable-background="new 0 0 907.9 95.2" xml:space="preserve">
<g>
	<g>
		<polygon fill="#FBD2CE" points="811,43.3 770.7,43.3 774.8,51.6 784.9,51.6 761.3,75.9 779.4,75.9 789.5,65.5 794.6,75.9 
			809,75.9 799,55.7 		"/>
		<polygon fill="#FBD2CE" points="674.1,0 679.9,9.5 657.4,45.6 674.5,45.6 703,0 		"/>
		<polygon fill="#FBD2CE" points="495.4,42.1 560.4,42.1 565.6,33.8 489.8,33.8 		"/>
		<polygon fill="#FBD2CE" points="542.9,61.1 569.8,61.1 575,52.8 537.2,52.8 		"/>
		<polygon fill="#FBD2CE" points="711.6,24.3 704.9,35.1 723.1,35.1 735,16 693,16 697.1,24.3 		"/>
		<polygon fill="#FBD2CE" points="704.9,35.1 681.1,35.1 685.2,43.4 699.7,43.4 669.3,92.1 687.6,92.1 712.9,51.5 		"/>
		<polygon fill="#FBD2CE" points="626.8,52.8 596.2,52.8 590.9,42.1 621.5,42.1 626.6,33.8 586.8,33.8 579.1,18.3 584.8,9.1 
			553.4,9.1 586.3,75.9 607.5,75.9 600.3,61.1 621.6,61.1 		"/>
		<polygon fill="#FBD2CE" points="847.6,43.3 868.9,9.1 838.9,9.1 844.7,18.6 829.3,43.3 818.8,43.3 824.1,51.6 809,75.9 
			829.1,75.9 838.6,60.6 832.6,51.6 901.6,51.6 907.9,43.3 		"/>
		<polygon fill="#FBD2CE" points="643,52.8 641.2,49.2 645.6,42.1 621.5,42.1 638.1,75.9 654.3,75.9 647,61.1 661.4,61.1 
			655.2,71.1 670.8,71.1 682.2,52.8 		"/>
		<polygon fill="#FBD2CE" points="758.7,35.1 733.3,75.9 750.4,75.9 775.9,35.1 		"/>
		<polygon fill="#FBD2CE" points="747.1,35.1 731.1,35.1 714.3,62 737.8,62 734.1,56 		"/>
	</g>
</g>
<g>
	<polygon fill="#FBD2CE" points="151.3,50.9 135.3,76.6 152.8,76.6 174,42.6 115.6,42.6 94.4,76.6 108.1,76.6 132.8,66.5 
		139.8,55.4 118.7,64 126.9,50.9 	"/>
	<polygon fill="#FBD2CE" points="282.8,18.8 287,25.3 255.1,76.5 271.1,76.5 307.1,18.8 	"/>
	<polygon fill="#FBD2CE" points="305.5,33.9 278.9,76.5 296,76.5 322.5,33.9 	"/>
	<polygon fill="#FBD2CE" points="437.3,42.6 324.3,42.6 320,49.4 337,68.2 308.3,68.2 303.2,76.5 351.6,76.5 355.8,69.7 338.9,50.9 
		374.7,50.9 358.6,76.6 388,76.6 382.4,68.1 388.1,58.9 382.9,50.9 432.1,50.9 	"/>
	<polygon fill="#FBD2CE" points="199,27.1 241.7,27.1 249.6,34.3 265.6,18.8 138,18.8 143.7,27.1 192.4,27.1 150,95.2 168.4,95.2 
		206.1,34.7 	"/>
	<polygon fill="#FBD2CE" points="66,51 57.5,41.3 90.2,41.3 98.1,48.5 114.1,33 0,33 5.7,41.3 49.7,41.3 27.8,76.6 87,76.6 
		92.1,68.3 55.3,68.3 	"/>
	<polygon fill="#FBD2CE" points="245.3,50.9 229.3,76.6 246.8,76.6 268,42.6 209.6,42.6 188.4,76.6 202.1,76.6 226.8,66.5 
		233.8,55.4 212.7,64 220.9,50.9 	"/>
</g>
</svg>
